<svg xmlns="http://www.w3.org/2000/svg" viewBox="0 0 1082.74 505.38"><defs><style>.cls-1,.cls-2{fill:#f0a500;}.cls-1,.cls-5{stroke:#a7a9ac;}.cls-1,.cls-2,.cls-3,.cls-4,.cls-5{stroke-miterlimit:10;}.cls-1,.cls-2,.cls-3,.cls-5{stroke-width:5px;}.cls-2,.cls-3{stroke:#f1f2f2;}.cls-3,.cls-5{fill:none;}.cls-4{font-size:120px;fill:#f1f2f2;stroke:#ffde17;font-family:CenturyGothic-Bold, Century Gothic;font-weight:700;letter-spacing:0.1em;}</style></defs><g id="Layer_2" data-name="Layer 2"><g id="Layer_1-2" data-name="Layer 1"><path class="cls-1" d="M182.33,303.37c0,2.8-.13,5.56-.38,8.3a90,90,0,0,1-48.36,71.65,88.35,88.35,0,0,1-11.33,4.89A89.93,89.93,0,0,1,2.5,303.37V117.5H25.17v197a68,68,0,0,0,34.67,49.31,68.07,68.07,0,0,0,65,0,68.11,68.11,0,0,0,35.46-59.71v-.74a68,68,0,0,0-87.19-64.49V215.53A90,90,0,0,1,182,295.08C182.2,297.81,182.33,300.58,182.33,303.37Z"/><path class="cls-2" d="M331.15,386.09a89.54,89.54,0,0,1-17.48,53.29h-.25v.33a89.83,89.83,0,0,1-61.2,35.63,92.49,92.49,0,0,1-11,.66,89.49,89.49,0,0,1-49.47-14.82,90.51,90.51,0,0,1-23-21.8,89.54,89.54,0,0,1-17.48-53.29q0-3.61.28-7.16a89.22,89.22,0,0,1,12.63-39.29H120.75l96.33-96.34H132.46V222.53H264.69l-96.34,96h52.51c-1.71.88-4.07,2.13-6.8,3.78a90.64,90.64,0,0,0-22.29,17.88,77.11,77.11,0,0,0-15.51,26.45,68.1,68.1,0,0,0,15.51,66.92,68,68,0,0,0,49.42,21.29,68,68,0,0,0,48.94-115.16h28.11a89.36,89.36,0,0,1,12.64,39.29Q331.15,382.47,331.15,386.09Z"/><path class="cls-3" d="M313.67,439.38l-.25.33"/><text class="cls-4" transform="translate(552.47 272.43) scale(1 1.25)">RUH<tspan x="-149.95" y="115.2">SCHOOL</tspan></text><line class="cls-5" x1="821" y1="2.5" x2="820.5" y2="2.5"/><line class="cls-5" x1="821" y1="2" x2="820.5" y2="2.5"/></g></g></svg>